<?xml version="1.0" encoding="UTF-8"?><svg id="b" xmlns="http://www.w3.org/2000/svg" width="220" height="330.09" viewBox="0 0 220 330.09"><g id="c"><path d="m.03,54.46c.77-12.11-2.47-25.48,6.57-37.09C15.15,6.39,25.41-.39,39.84.02c10.66.3,21.34.01,32.02.07,21.8.12,37.87,16.28,38.33,37.9.31,14.56.06,29.31,2.36,43.6,2.48,15.43,17.58,26.65,33.32,27.29,11.87.48,23.76.73,35.64.94,22,.4,37.96,15.96,38.37,37.76.21,10.97.11,21.95.07,32.93-.09,24.05-15.69,39.31-39.95,39.73-13.96.24-28.32-.58-41.77,2.37-17.48,3.84-26.97,18.29-27.72,37.09-.44,10.96.02,21.96-.34,32.93-.74,22-16.73,37.33-38.73,37.4-10.98.04-21.96.09-32.93,0-21.05-.15-38.17-17.11-38.43-38.14-.14-10.98-.01-21.96.02-32.93.05-21.72,13.4-37.08,35.14-39.11,13.92-1.3,28-.84,41.96-1.78,15.69-1.06,30.65-15.83,31.46-31.43.69-13.34-.06-26.75.31-40.12.49-17.38-16.55-36.3-40.46-35.74-11.25.26-22.55.15-33.77-.65C14.57,108.69.32,92.95.04,72.59c-.08-5.79-.01-11.59-.01-18.12Z" fill="#fff" stroke-width="0"/></g></svg>