<?xml version="1.0" encoding="UTF-8"?><svg id="b" xmlns="http://www.w3.org/2000/svg" width="255.55" height="212.13" viewBox="0 0 255.55 212.13"><g id="c"><path d="m255.54,113.46c0,15.97.06,31.44-.11,46.91-.01,1.28-1.3,3.05-2.48,3.74-26.87,15.71-53.81,31.32-80.78,46.86-1.35.78-3.14,1.12-4.73,1.12-54.83.05-109.66.04-164.49.03-.66,0-1.32-.11-2.46-.21-.14-1.42-.39-2.84-.39-4.26-.02-13.67.09-27.33-.07-41-.03-3.06.99-4.75,3.63-6.27,26.13-15.01,52.16-30.18,78.28-45.19,1.91-1.1,4.32-1.9,6.5-1.91,54.5-.1,109-.08,163.49-.07.98,0,1.96.13,3.6.24Z" fill="#fff" stroke-width="0"/><path d="m.08,0c3.14,0,5.46,0,7.78,0,52.66,0,105.33-.04,157.99.1,2.98,0,6.31.87,8.89,2.35,25.86,14.8,51.62,29.78,77.32,44.87,1.55.91,3.32,3.1,3.34,4.72.24,14.83.12,29.66.08,44.49,0,.47-.25.93-.57,2.06-1.66,0-3.44,0-5.21,0-53.5,0-107,.03-160.49-.09-2.66,0-5.62-.85-7.94-2.18-25.85-14.82-51.58-29.85-77.42-44.68C1.03,50.03-.04,48.27,0,45,.18,30.19.08,15.37.08,0Z" fill="#fff" stroke-width="0"/></g></svg>