<?xml version="1.0" encoding="UTF-8"?><svg id="b" xmlns="http://www.w3.org/2000/svg" width="220" height="220" viewBox="0 0 220 220"><g id="c"><path d="m105.02,193.7c0,13.14-7.56,22.94-18.21,25.53-11.23,2.73-22.7-2.49-27.83-12.67-5.11-10.13-2.59-22.45,6.09-29.64,1.07-.88,2.18-1.72,3.32-2.5,6.8-4.67,8.86-15,3.82-21.54-1.58-2.06-4.47-3.9-6.99-4.27-3.9-.56-6.32,2.91-6.24,7.56.2,11.96-7.78,22.17-19.42,24.86-13.26,3.06-26.6-5.72-29.16-19.21-2.53-13.32,6.87-26.54,20.17-28.54,6.38-.96,12.24.17,17.58,3.74,2.66,1.78,5.14,1.7,7.69-.14,2.53-1.82,2.96-4.23,2.3-7.1-1.91-8.18-12.97-13.23-20.49-9.04-6.61,3.69-13.41,4.83-20.61,2.55C5.52,119.63-1.44,108.35.25,96.39c1.63-11.56,11.59-20.46,23.28-20.79,12.16-.35,22.75,7.9,24.75,20.08,1.16,7.02,4.39,11.68,11.12,13.93,4.13,1.38,7.88.62,11.7-1.37,13.74-7.15,29.64-1.09,34.73,13.08,3.89,10.83-.03,22.14-10.3,28.97-4.66,3.1-6.78,7.35-6.89,12.73-.11,5.16,1.7,9.44,6.02,12.58,6.78,4.94,10.21,11.67,10.36,18.1Z" fill="#fff" stroke-width="0"/><path d="m165.04,72.04c-3.49-1.02-7.09-1.76-10.44-3.13-8.52-3.48-19.23,2.63-19.94,11.79-.53,6.83-2.13,13.13-7.19,18.05-7.19,7-15.76,9.1-25.23,5.97-9.53-3.15-14.78-10.15-16.4-20.02-.52-3.17-.79-6.68-2.38-9.31-3.92-6.48-11.45-8.31-18.42-5.2-11.09,4.95-23.01,1.89-30.27-7.79-6.67-8.89-6.06-21.89,1.43-30.51,6.47-7.45,16.56-10.08,26.31-6.87,8.94,2.95,15.53,11.5,16.29,21.15.64,8.09,4.44,12.88,11.78,14.83,6.94,1.85,12.96-2.73,12.05-9.11-.45-3.14-2.65-4.67-5.12-6.11-7.9-4.58-12.2-11.49-12.66-20.57-.61-11.99,7.43-22.12,19.33-24.7,11.42-2.48,23.32,3.94,27.73,14.95,4.39,10.97.17,23.58-10.02,29.81-2.2,1.35-4.52,2.44-5.08,5.4-1.19,6.3,3.08,10.83,9.92,10.37,8.22-.55,13.89-6.51,14.47-15.18.83-12.38,10.24-21.92,22.78-23.1,11.27-1.06,21.96,6.64,25.17,18.09,4.26,15.24-7.87,30.73-24.12,31.17Z" fill="#fff" stroke-width="0"/><path d="m187.11,179.68c-13.3-.09-23.51-9.75-24.42-23.11-.21-3.15.07-6.45-3.53-8.19-2.25-1.08-4.26-1.16-6.44.27-8.73,5.74-8.84,19.59-.02,25.58,4.63,3.14,8.4,6.88,10.57,12.12,4.61,11.13.5,23.92-9.74,30.1-10.33,6.24-23.73,4.07-31.27-5.08-7.9-9.59-7.7-23.15.5-32.12,1.07-1.17,2.18-2.37,3.5-3.21,8.56-5.47,8.06-20.54-.98-26.12-17.48-10.8-14.55-34.28,1.36-42.47,7.72-3.98,15.89-4.11,23.03.57,7.99,5.24,21.3-1.75,21.78-11.5.62-12.7,12.2-21.99,25.1-21.65,12.12.31,22.39,9.99,23.36,22.01,1.03,12.78-7.77,24.05-20.44,26.27-5.61.98-10.83,0-15.8-2.68-7-3.76-15.19-1.71-19.62,4.84-3.2,4.73-2.03,9.43,2.71,11.26,2.61,1.01,4.55-.15,6.61-1.48,7.57-4.9,15.54-5.57,23.8-1.92,10.57,4.67,16.22,16.24,13.65,27.81-2.46,11.07-12.25,18.8-23.72,18.72Z" fill="#fff" stroke-width="0"/></g></svg>