<?xml version="1.0" encoding="UTF-8"?><svg id="b" xmlns="http://www.w3.org/2000/svg" width="298.57" height="361.21" viewBox="0 0 298.57 361.21"><g id="c"><path d="m298.57,132.74v163.35c0,35.96-29.15,65.12-65.12,65.12h-48.09c-35.96,0-65.11-29.15-65.11-65.11v-110.69c0-1.45-1.2-2.6-2.65-2.56-.61.02-1.22.03-1.84.03h-50.66C29.15,182.89,0,153.74,0,117.78v-52.67C0,29.15,29.15,0,65.11,0h48.1c35.96,0,65.11,29.15,65.11,65.11h0c0,1.45,1.2,2.6,2.65,2.56.61-.02,1.22-.03,1.84-.03h50.66c35.96,0,65.11,29.15,65.11,65.11Z" fill="#231f20" stroke-width="0"/></g></svg>