<?xml version="1.0" encoding="UTF-8"?><svg id="b" xmlns="http://www.w3.org/2000/svg" width="220" height="251.07" viewBox="0 0 220 251.07"><g id="c"><path d="m137.2,59.94c-6.35-6.72-12.5-13.24-18.94-20.06.26-.27,1.02-1.23,1.93-2.01,15.56-13.26,31.67-25.8,50.94-33.24,6.32-2.44,13.29-4.09,20.03-4.38,16.09-.69,27.91,11.19,28.64,27.37.58,12.98-2.73,25.13-7.52,36.95-13.66,33.66-34.16,63.08-56.91,91.07-5.84,7.19-12.03,14.1-18.67,21.84-6.59-6.55-12.78-12.51-18.61-18.82-.54-.59.9-3.6,2.01-5.03,12.4-15.95,25.46-31.42,37.26-47.8,13.34-18.52,24.73-38.28,31.67-60.25,1.29-4.09,1.98-8.41,2.62-12.67.56-3.68-1.41-5.47-4.83-3.93-7.86,3.54-15.88,6.92-23.2,11.41-7.62,4.68-14.5,10.58-21.7,15.95-1.52,1.13-3.02,2.29-4.72,3.57Z" fill="#fff" stroke-width="0"/><path d="m103.25,93.06c-8.31,10.04-16.21,19.11-23.59,28.59-18.1,23.22-34.61,47.47-45.63,74.97-2.48,6.2-4.07,12.82-5.48,19.37-1.37,6.31.76,8.31,6.59,5.38,10.83-5.44,21.34-11.6,31.65-17.99,5.53-3.43,10.38-7.98,15.78-12.21,6.22,6.85,12.33,13.58,19.02,20.94-8.3,6.31-17.4,13.6-26.9,20.33-10.51,7.44-21.76,13.63-34.35,16.93-7.41,1.94-14.94,2.64-22.26-.23C5.63,244.26.4,234.31.03,221.58c-.4-13.6,3.81-26.28,9.04-38.6,12.31-29.03,29.71-54.98,49.13-79.63,7.15-9.07,14.87-17.68,22.25-26.57,1.94-2.34,3.49-2.71,5.82-.34,5.49,5.6,11.2,10.98,16.99,16.61Z" fill="#fff" stroke-width="0"/><path d="m35.86,116.68c-1.73-2.57-3.03-4.35-4.18-6.23C18.84,89.66,6.7,68.52,1.55,44.26.49,39.29-.07,34.08.07,29,.61,9.23,15.53-2.76,35.08.55c13.25,2.24,24.9,8.31,35.95,15.56,28.41,18.65,52.32,42.33,74.61,67.73,8.72,9.94,8.63,10.06,1,20.77-2.7,3.79-5.5,7.5-8.29,11.22-.26.34-.79.49-1.55.94-5.2-6.03-10.33-12.14-15.63-18.1-19.14-21.52-39.53-41.74-63.75-57.58-7.18-4.69-15.15-8.31-23.05-11.74-5.11-2.21-6.83-.42-6,5.09,2.47,16.32,9.94,30.7,17.6,44.99,2.47,4.62,7.04,9.37,6.78,13.84-.24,4.27-5.51,8.26-8.57,12.36-2.58,3.45-5.17,6.88-8.32,11.06Z" fill="#fff" stroke-width="0"/><path d="m82.49,133.58c7.61,8.71,14.31,16.69,21.34,24.37,17.81,19.47,36.75,37.75,58.98,52.16,7.2,4.67,15.2,8.19,23.1,11.63,4.7,2.05,6.65.49,5.6-4.55-1.61-7.64-3.37-15.43-6.49-22.53-4.96-11.27-10.95-22.11-16.86-32.94-1.57-2.89-1.57-4.68.48-7.2,5.14-6.34,9.98-12.92,15.1-19.61.59.4,1.24.62,1.54,1.08,12.71,19.55,24.22,39.71,31.09,62.17,2.99,9.76,4.78,19.76,2.8,29.9-3.29,16.91-17.75,25.76-35.58,22.17-15.95-3.21-29.55-11.42-42.53-20.67-27.49-19.61-50.94-43.52-72.7-69.19-1.87-2.21-2.08-3.95-.34-6.33,4.79-6.56,9.4-13.27,14.47-20.47Z" fill="#fff" stroke-width="0"/></g></svg>