<?xml version="1.0" encoding="UTF-8"?><svg id="b" xmlns="http://www.w3.org/2000/svg" width="220" height="220.02" viewBox="0 0 220 220.02"><g id="c"><path d="m39.21,109.46c-.53-18.65-7.96-32.86-21.97-43.7C8.48,58.98,1.81,51.01.51,39.4-1.2,24.09,6.72,9.43,20.43,3.25,34.66-3.16,50.71.49,61.4,11.93c6.56,7.01,12.95,14.76,20.94,19.73,22.06,13.73,49.55,9.16,67.32-9.88,3.01-3.22,5.67-6.77,8.66-10.02,14.08-15.27,37.62-15.72,51.76-1.06,14.36,14.9,13.06,37.91-3.58,51.29-12.34,9.92-22.41,21.03-25.3,37.16-3.61,20.19,2.02,37.44,16.94,51.55,2.75,2.6,5.79,4.89,8.67,7.35,16.1,13.7,17.48,36.96,3.08,51.43-14.82,14.88-39.01,13.9-52.62-2.35-7.06-8.43-14.12-16.65-24.39-21.49-22.55-10.63-49.2-5.15-65.47,13.73-2.06,2.39-3.98,4.9-6.01,7.32-12.97,15.43-34.25,17.71-48.93,5.25-14.77-12.54-16.78-35.78-4.1-50.48,3.27-3.79,7.24-7.03,11.11-10.26,13.28-11.13,19.57-25.42,19.73-41.73Z" fill="#fff" stroke-width="0"/></g></svg>